{
	"asset":{
		"generator":"Khronos glTF Blender I/O v4.1.63",
		"version":"2.0"
	},
	"scene":0,
	"scenes":[
		{
			"name":"Scene",
			"nodes":[
				0,
				1,
				2,
				3,
				4,
				5,
				6,
				7,
				8,
				9
			]
		}
	],
	"nodes":[
		{
			"mesh":0,
			"name":"Plane"
		},
		{
			"mesh":1,
			"name":"Plane.001",
			"rotation":[
				-0.696827232837677,
				0.12013249844312668,
				0.12013249844312668,
				0.696827232837677
			],
			"translation":[
				-0.6950753927230835,
				0,
				2.2997491359710693
			]
		},
		{
			"mesh":2,
			"name":"Plane.002",
			"rotation":[
				0.6703845262527466,
				-0.22491022944450378,
				0.22491022944450378,
				0.6703844666481018
			],
			"translation":[
				24.656238555908203,
				0,
				-10.921979904174805
			]
		},
		{
			"mesh":3,
			"name":"Plane.003",
			"rotation":[
				0.6672579050064087,
				-0.234023317694664,
				0.234023317694664,
				0.6672579050064087
			],
			"translation":[
				22.412208557128906,
				0,
				-15.45279312133789
			]
		},
		{
			"mesh":4,
			"name":"Plane.004",
			"rotation":[
				0.6940913796424866,
				-0.13504517078399658,
				0.13504518568515778,
				0.6940913796424866
			],
			"translation":[
				16.363405227661133,
				0,
				-16.06299591064453
			]
		},
		{
			"mesh":5,
			"name":"Plane.008",
			"rotation":[
				0.6345848441123962,
				-0.3119328022003174,
				0.31193283200263977,
				0.6345848441123962
			],
			"translation":[
				14.1958589553833,
				0,
				-2.452392101287842
			]
		},
		{
			"mesh":6,
			"name":"Plane.009",
			"rotation":[
				0.6522402763366699,
				-0.2730981707572937,
				0.2730982005596161,
				0.6522403359413147
			],
			"translation":[
				8.745953559875488,
				0,
				-7.932662487030029
			]
		},
		{
			"mesh":7,
			"name":"Plane.005",
			"rotation":[
				0.7054985165596008,
				-0.047663476318120956,
				0.047663476318120956,
				0.7054985761642456
			],
			"translation":[
				-22.229368209838867,
				0,
				4.110080718994141
			]
		},
		{
			"mesh":8,
			"name":"Plane.006",
			"rotation":[
				0.6881206035614014,
				0.1627577841281891,
				-0.16275779902935028,
				0.6881206035614014
			],
			"scale":[
				1.232370138168335,
				1.3571922779083252,
				1
			],
			"translation":[
				-29.397729873657227,
				0,
				5.450989246368408
			]
		},
		{
			"mesh":9,
			"name":"Plane.007",
			"rotation":[
				0.6894193291664124,
				0.15716561675071716,
				-0.15716563165187836,
				0.6894192695617676
			],
			"translation":[
				-30.955570220947266,
				0,
				11.418829917907715
			]
		}
	],
	"materials":[
		{
			"alphaCutoff":0.5,
			"alphaMode":"MASK",
			"doubleSided":true,
			"name":"grass",
			"pbrMetallicRoughness":{
				"baseColorTexture":{
					"index":0
				},
				"metallicFactor":0,
				"roughnessFactor":0.5
			}
		},
		{
			"alphaCutoff":0.5,
			"alphaMode":"MASK",
			"doubleSided":true,
			"name":"moped",
			"pbrMetallicRoughness":{
				"baseColorTexture":{
					"index":1
				},
				"metallicFactor":0,
				"roughnessFactor":0.5
			}
		},
		{
			"alphaCutoff":0.5,
			"alphaMode":"MASK",
			"doubleSided":true,
			"name":"bushes",
			"pbrMetallicRoughness":{
				"baseColorTexture":{
					"index":2
				},
				"metallicFactor":0,
				"roughnessFactor":0.5
			}
		}
	],
	"meshes":[
		{
			"name":"Plane",
			"primitives":[
				{
					"attributes":{
						"POSITION":0,
						"NORMAL":1,
						"TEXCOORD_0":2
					},
					"indices":3,
					"material":0
				}
			]
		},
		{
			"name":"Plane.001",
			"primitives":[
				{
					"attributes":{
						"POSITION":4,
						"NORMAL":5,
						"TEXCOORD_0":6
					},
					"indices":7,
					"material":1
				}
			]
		},
		{
			"name":"Plane.002",
			"primitives":[
				{
					"attributes":{
						"POSITION":8,
						"NORMAL":9,
						"TEXCOORD_0":10
					},
					"indices":7,
					"material":2
				}
			]
		},
		{
			"name":"Plane.003",
			"primitives":[
				{
					"attributes":{
						"POSITION":11,
						"NORMAL":12,
						"TEXCOORD_0":13
					},
					"indices":14,
					"material":2
				}
			]
		},
		{
			"name":"Plane.004",
			"primitives":[
				{
					"attributes":{
						"POSITION":15,
						"NORMAL":16,
						"TEXCOORD_0":17
					},
					"indices":7,
					"material":2
				}
			]
		},
		{
			"name":"Plane.005",
			"primitives":[
				{
					"attributes":{
						"POSITION":18,
						"NORMAL":19,
						"TEXCOORD_0":20
					},
					"indices":7,
					"material":2
				}
			]
		},
		{
			"name":"Plane.009",
			"primitives":[
				{
					"attributes":{
						"POSITION":21,
						"NORMAL":22,
						"TEXCOORD_0":23
					},
					"indices":7,
					"material":2
				}
			]
		},
		{
			"name":"Plane.010",
			"primitives":[
				{
					"attributes":{
						"POSITION":24,
						"NORMAL":25,
						"TEXCOORD_0":26
					},
					"indices":7,
					"material":2
				}
			]
		},
		{
			"name":"Plane.006",
			"primitives":[
				{
					"attributes":{
						"POSITION":27,
						"NORMAL":28,
						"TEXCOORD_0":29
					},
					"indices":7,
					"material":2
				}
			]
		},
		{
			"name":"Plane.007",
			"primitives":[
				{
					"attributes":{
						"POSITION":30,
						"NORMAL":31,
						"TEXCOORD_0":32
					},
					"indices":7,
					"material":2
				}
			]
		}
	],
	"textures":[
		{
			"sampler":0,
			"source":0
		},
		{
			"sampler":0,
			"source":0
		},
		{
			"sampler":0,
			"source":0
		}
	],
	"images":[
		{
			"mimeType":"image/png",
			"name":"first level stuff",
			"uri":"first%20level%20stuff.png"
		}
	],
	"accessors":[
		{
			"bufferView":0,
			"componentType":5126,
			"count":33,
			"max":[
				29.510087966918945,
				0,
				22.66158103942871
			],
			"min":[
				-34.99576950073242,
				0,
				-20.297510147094727
			],
			"type":"VEC3"
		},
		{
			"bufferView":1,
			"componentType":5126,
			"count":33,
			"type":"VEC3"
		},
		{
			"bufferView":2,
			"componentType":5126,
			"count":33,
			"type":"VEC2"
		},
		{
			"bufferView":3,
			"componentType":5123,
			"count":120,
			"type":"SCALAR"
		},
		{
			"bufferView":4,
			"componentType":5126,
			"count":4,
			"max":[
				1.6394771337509155,
				-5.605888020454586e-08,
				3.38157057762146
			],
			"min":[
				-3.2590465545654297,
				-0.02386394888162613,
				-1.0431232544405589e-09
			],
			"type":"VEC3"
		},
		{
			"bufferView":5,
			"componentType":5126,
			"count":4,
			"type":"VEC3"
		},
		{
			"bufferView":6,
			"componentType":5126,
			"count":4,
			"type":"VEC2"
		},
		{
			"bufferView":7,
			"componentType":5123,
			"count":6,
			"type":"SCALAR"
		},
		{
			"bufferView":8,
			"componentType":5126,
			"count":4,
			"max":[
				1.8545035123825073,
				-4.371138828673793e-08,
				0
			],
			"min":[
				-1.8545035123825073,
				-4.371138828673793e-08,
				-2.4939522743225098
			],
			"type":"VEC3"
		},
		{
			"bufferView":9,
			"componentType":5126,
			"count":4,
			"type":"VEC3"
		},
		{
			"bufferView":10,
			"componentType":5126,
			"count":4,
			"type":"VEC2"
		},
		{
			"bufferView":11,
			"componentType":5126,
			"count":9,
			"max":[
				2.2223193645477295,
				1.0042187170711259e-07,
				0
			],
			"min":[
				-2.2223193645477295,
				-4.638322792516192e-08,
				-2.7919013500213623
			],
			"type":"VEC3"
		},
		{
			"bufferView":12,
			"componentType":5126,
			"count":9,
			"type":"VEC3"
		},
		{
			"bufferView":13,
			"componentType":5126,
			"count":9,
			"type":"VEC2"
		},
		{
			"bufferView":14,
			"componentType":5123,
			"count":24,
			"type":"SCALAR"
		},
		{
			"bufferView":15,
			"componentType":5126,
			"count":4,
			"max":[
				1.8545035123825073,
				-4.371138828673793e-08,
				0
			],
			"min":[
				-1.8545035123825073,
				-4.371138828673793e-08,
				-2
			],
			"type":"VEC3"
		},
		{
			"bufferView":16,
			"componentType":5126,
			"count":4,
			"type":"VEC3"
		},
		{
			"bufferView":17,
			"componentType":5126,
			"count":4,
			"type":"VEC2"
		},
		{
			"bufferView":18,
			"componentType":5126,
			"count":4,
			"max":[
				2.964374303817749,
				-6.987148992720904e-08,
				0
			],
			"min":[
				-2.964374303817749,
				-6.987148992720904e-08,
				-3.196946620941162
			],
			"type":"VEC3"
		},
		{
			"bufferView":19,
			"componentType":5126,
			"count":4,
			"type":"VEC3"
		},
		{
			"bufferView":20,
			"componentType":5126,
			"count":4,
			"type":"VEC2"
		},
		{
			"bufferView":21,
			"componentType":5126,
			"count":4,
			"max":[
				2.769106864929199,
				-6.526895646175035e-08,
				0
			],
			"min":[
				-2.769106864929199,
				-6.526895646175035e-08,
				-3.723918914794922
			],
			"type":"VEC3"
		},
		{
			"bufferView":22,
			"componentType":5126,
			"count":4,
			"type":"VEC3"
		},
		{
			"bufferView":23,
			"componentType":5126,
			"count":4,
			"type":"VEC2"
		},
		{
			"bufferView":24,
			"componentType":5126,
			"count":4,
			"max":[
				2.833793878555298,
				-7.072097218951967e-08,
				0
			],
			"min":[
				-2.833793878555298,
				-7.072097218951967e-08,
				-9.733166694641113
			],
			"type":"VEC3"
		},
		{
			"bufferView":25,
			"componentType":5126,
			"count":4,
			"type":"VEC3"
		},
		{
			"bufferView":26,
			"componentType":5126,
			"count":4,
			"type":"VEC2"
		},
		{
			"bufferView":27,
			"componentType":5126,
			"count":4,
			"max":[
				2.833793878555298,
				-7.072097218951967e-08,
				0
			],
			"min":[
				-2.833793878555298,
				-7.072097218951967e-08,
				-9.733166694641113
			],
			"type":"VEC3"
		},
		{
			"bufferView":28,
			"componentType":5126,
			"count":4,
			"type":"VEC3"
		},
		{
			"bufferView":29,
			"componentType":5126,
			"count":4,
			"type":"VEC2"
		},
		{
			"bufferView":30,
			"componentType":5126,
			"count":4,
			"max":[
				2.833793878555298,
				-7.072097218951967e-08,
				0
			],
			"min":[
				-2.833793878555298,
				-7.072097218951967e-08,
				-9.733166694641113
			],
			"type":"VEC3"
		},
		{
			"bufferView":31,
			"componentType":5126,
			"count":4,
			"type":"VEC3"
		},
		{
			"bufferView":32,
			"componentType":5126,
			"count":4,
			"type":"VEC2"
		}
	],
	"bufferViews":[
		{
			"buffer":0,
			"byteLength":396,
			"byteOffset":0,
			"target":34962
		},
		{
			"buffer":0,
			"byteLength":396,
			"byteOffset":396,
			"target":34962
		},
		{
			"buffer":0,
			"byteLength":264,
			"byteOffset":792,
			"target":34962
		},
		{
			"buffer":0,
			"byteLength":240,
			"byteOffset":1056,
			"target":34963
		},
		{
			"buffer":0,
			"byteLength":48,
			"byteOffset":1296,
			"target":34962
		},
		{
			"buffer":0,
			"byteLength":48,
			"byteOffset":1344,
			"target":34962
		},
		{
			"buffer":0,
			"byteLength":32,
			"byteOffset":1392,
			"target":34962
		},
		{
			"buffer":0,
			"byteLength":12,
			"byteOffset":1424,
			"target":34963
		},
		{
			"buffer":0,
			"byteLength":48,
			"byteOffset":1436,
			"target":34962
		},
		{
			"buffer":0,
			"byteLength":48,
			"byteOffset":1484,
			"target":34962
		},
		{
			"buffer":0,
			"byteLength":32,
			"byteOffset":1532,
			"target":34962
		},
		{
			"buffer":0,
			"byteLength":108,
			"byteOffset":1564,
			"target":34962
		},
		{
			"buffer":0,
			"byteLength":108,
			"byteOffset":1672,
			"target":34962
		},
		{
			"buffer":0,
			"byteLength":72,
			"byteOffset":1780,
			"target":34962
		},
		{
			"buffer":0,
			"byteLength":48,
			"byteOffset":1852,
			"target":34963
		},
		{
			"buffer":0,
			"byteLength":48,
			"byteOffset":1900,
			"target":34962
		},
		{
			"buffer":0,
			"byteLength":48,
			"byteOffset":1948,
			"target":34962
		},
		{
			"buffer":0,
			"byteLength":32,
			"byteOffset":1996,
			"target":34962
		},
		{
			"buffer":0,
			"byteLength":48,
			"byteOffset":2028,
			"target":34962
		},
		{
			"buffer":0,
			"byteLength":48,
			"byteOffset":2076,
			"target":34962
		},
		{
			"buffer":0,
			"byteLength":32,
			"byteOffset":2124,
			"target":34962
		},
		{
			"buffer":0,
			"byteLength":48,
			"byteOffset":2156,
			"target":34962
		},
		{
			"buffer":0,
			"byteLength":48,
			"byteOffset":2204,
			"target":34962
		},
		{
			"buffer":0,
			"byteLength":32,
			"byteOffset":2252,
			"target":34962
		},
		{
			"buffer":0,
			"byteLength":48,
			"byteOffset":2284,
			"target":34962
		},
		{
			"buffer":0,
			"byteLength":48,
			"byteOffset":2332,
			"target":34962
		},
		{
			"buffer":0,
			"byteLength":32,
			"byteOffset":2380,
			"target":34962
		},
		{
			"buffer":0,
			"byteLength":48,
			"byteOffset":2412,
			"target":34962
		},
		{
			"buffer":0,
			"byteLength":48,
			"byteOffset":2460,
			"target":34962
		},
		{
			"buffer":0,
			"byteLength":32,
			"byteOffset":2508,
			"target":34962
		},
		{
			"buffer":0,
			"byteLength":48,
			"byteOffset":2540,
			"target":34962
		},
		{
			"buffer":0,
			"byteLength":48,
			"byteOffset":2588,
			"target":34962
		},
		{
			"buffer":0,
			"byteLength":32,
			"byteOffset":2636,
			"target":34962
		}
	],
	"samplers":[
		{
			"magFilter":9729,
			"minFilter":9987
		}
	],
	"buffers":[
		{
			"byteLength":2668,
			"uri":"first%20level%20forest.bin"
		}
	]
}
